<svg xmlns="http://www.w3.org/2000/svg" viewBox="0 0 3672.85 1369.32"><defs><style>.cls-1{fill:#086ad8;}</style></defs><g id="Layer_2" data-name="Layer 2"><g id="Layer_1-2" data-name="Layer 1"><path class="cls-1" d="M0,1086.88H202.65v37.3H0Zm81.18,22.88h40.29v256.67H81.18Z"/><path class="cls-1" d="M282.6,1086.88h40.3v279.55H282.6Zm19.56,0H467.08v37.3H302.16Zm0,122.09H445.35v37.3H302.16Zm0,120.16H467.08v37.3H302.16Z"/><path class="cls-1" d="M606.39,1356.43a88.36,88.36,0,0,1-35.06-36.53q-12.45-23.64-12.44-54.79V1188.4q0-31.15,12.44-54.8A89.15,89.15,0,0,1,606.39,1097q22.61-13,52.44-13a100.93,100.93,0,0,1,45.43,10.28,95.16,95.16,0,0,1,34.66,29.13,107.79,107.79,0,0,1,18.86,43.64H716.5a62.58,62.58,0,0,0-33.18-39.22,57,57,0,0,0-24.49-5.57q-17.58,0-30.82,8.26a55.43,55.43,0,0,0-20.54,23.17q-7.31,14.91-7.3,34.71v76.71q0,19.61,7.3,34.61A54.57,54.57,0,0,0,628,1322.88q13.25,8.17,30.82,8.17a60.23,60.23,0,0,0,24.59-5.19A57.66,57.66,0,0,0,704,1310.48a60.28,60.28,0,0,0,12.54-24.22h41.28a107,107,0,0,1-19,43.64A96.05,96.05,0,0,1,704.06,1359a100.38,100.38,0,0,1-45.23,10.29Q629,1369.32,606.39,1356.43Z"/><path class="cls-1" d="M851.56,1086.88h40.29v279.55H851.56Zm25.09,123.24H1036v37.3H876.65Zm138.06-123.24H1055v279.55h-40.29Z"/><path class="cls-1" d="M1362.65,1365.47a150.9,150.9,0,0,1-34.67-11.54,146.84,146.84,0,0,1-30.12-19.22l25.09-30a114.39,114.39,0,0,0,36.14,20.76,128.89,128.89,0,0,0,42.86,6.92q31.21,0,48.39-11.25t17.19-31.82v-.19q0-14.61-7.8-23.17a46.86,46.86,0,0,0-20.15-12.69,230.26,230.26,0,0,0-31.9-7.59,4,4,0,0,0-1.28-.19,4.42,4.42,0,0,1-1.29-.19l-3-.58q-28.85-4.8-46.91-10.86t-30.91-22.11q-12.84-16.07-12.84-45.67v-.19q0-26,12-44.32t34.86-28q22.92-9.61,55.11-9.61a141.21,141.21,0,0,1,30.32,3.27,153.86,153.86,0,0,1,29.43,9.7,170.74,170.74,0,0,1,28.54,16.25l-22.91,31.15a135.33,135.33,0,0,0-32.69-17.59,96,96,0,0,0-32.69-5.87q-29.43,0-45.73,11.44t-16.29,32.4v.19q0,14.41,8.39,22.69a51.19,51.19,0,0,0,20.94,12.21q12.54,3.93,34.86,8.17c.53.13,1,.22,1.48.29s1,.16,1.48.28,1.39.26,2.18.39l2.17.38q26.07,5.19,43.55,12.31a67.63,67.63,0,0,1,29.23,23q11.76,15.87,11.76,43.36v.38q0,25.58-12.45,43.74t-36,27.69q-23.61,9.51-57,9.52A193.69,193.69,0,0,1,1362.65,1365.47Z"/><path class="cls-1" d="M1639.33,1356.53a88.33,88.33,0,0,1-35.46-36.15q-12.54-23.36-12.54-54.12v-79.21q0-30.77,12.54-54.12a88.39,88.39,0,0,1,35.46-36.15q22.9-12.78,52.93-12.78t52.93,12.78a88.45,88.45,0,0,1,35.46,36.15q12.54,23.35,12.54,54.12v79.21q0,30.77-12.54,54.12a88.39,88.39,0,0,1-35.46,36.15q-22.9,12.79-52.93,12.79T1639.33,1356.53Zm84.23-33.65a53,53,0,0,0,20.94-22.11q7.41-14.31,7.41-33.16V1185.7q0-18.84-7.41-33.16a53,53,0,0,0-20.94-22.11q-13.53-7.79-31.3-7.79t-31.31,7.79a52.89,52.89,0,0,0-20.93,22.11q-7.41,14.32-7.41,33.16v81.91q0,18.84,7.41,33.16a52.89,52.89,0,0,0,20.93,22.11q13.53,7.78,31.31,7.79T1723.56,1322.88Z"/><path class="cls-1" d="M1894.87,1086.88h40.29v279.55h-40.29ZM1915,1329.13h164.34v37.3H1915Z"/><path class="cls-1" d="M2201.67,1357.11a81.13,81.13,0,0,1-34.47-35.57q-11.85-23.37-11.85-56.24V1086.88h40.29v179.77q0,30.57,15.8,47.29t44.64,16.73q29,0,44.94-16.73t15.9-47.29V1086.88h40.29V1265.3q0,32.88-11.85,56.24a81,81,0,0,1-34.57,35.57q-22.71,12.21-54.71,12.21Q2224.28,1369.32,2201.67,1357.11Z"/><path class="cls-1" d="M2425.31,1086.88H2628v37.3H2425.31Zm81.18,22.88h40.29v256.67h-40.29Z"/><path class="cls-1" d="M2748.21,1366.43h-40.3V1086.88h40.3Z"/><path class="cls-1" d="M2901.83,1356.53a88.37,88.37,0,0,1-35.45-36.15q-12.54-23.36-12.54-54.12v-79.21q0-30.77,12.54-54.12a88.43,88.43,0,0,1,35.45-36.15q22.92-12.78,52.94-12.78t52.93,12.78a88.43,88.43,0,0,1,35.45,36.15q12.54,23.35,12.55,54.12v79.21q0,30.77-12.55,54.12a88.37,88.37,0,0,1-35.45,36.15q-22.92,12.79-52.93,12.79T2901.83,1356.53Zm84.24-33.65a53,53,0,0,0,20.94-22.11q7.41-14.31,7.41-33.16V1185.7q0-18.84-7.41-33.16a53,53,0,0,0-20.94-22.11q-13.53-7.79-31.3-7.79t-31.31,7.79a53,53,0,0,0-20.94,22.11q-7.39,14.32-7.4,33.16v81.91q0,18.84,7.4,33.16a53,53,0,0,0,20.94,22.11q13.53,7.78,31.31,7.79T2986.07,1322.88Z"/><path class="cls-1" d="M3157.38,1086.88h36.54L3334.35,1303l-4.74,5v-221.1h39.9v279.36h-36.94l-140-212.84,4.74-5v217.84h-39.89Z"/><path class="cls-1" d="M3528.07,1365.47a150.82,150.82,0,0,1-34.66-11.54,146.3,146.3,0,0,1-30.12-19.22l25.08-30a114.43,114.43,0,0,0,36.15,20.76,128.81,128.81,0,0,0,42.86,6.92q31.2,0,48.39-11.25t17.18-31.82v-.19q0-14.61-7.8-23.17a46.8,46.8,0,0,0-20.15-12.69,230.26,230.26,0,0,0-31.9-7.59,4,4,0,0,0-1.28-.19,4.35,4.35,0,0,1-1.28-.19l-3-.58q-28.83-4.8-46.91-10.86t-30.91-22.11q-12.84-16.07-12.84-45.67v-.19q0-26,12-44.32t34.87-28q22.91-9.61,55.1-9.61a141.14,141.14,0,0,1,30.32,3.27,153.86,153.86,0,0,1,29.43,9.7,170.74,170.74,0,0,1,28.54,16.25l-22.91,31.15a135.15,135.15,0,0,0-32.69-17.59,95.94,95.94,0,0,0-32.69-5.87q-29.43,0-45.72,11.44t-16.3,32.4v.19q0,14.41,8.4,22.69a51.08,51.08,0,0,0,20.93,12.21q12.54,3.93,34.86,8.17c.53.13,1,.22,1.49.29s1,.16,1.48.28,1.38.26,2.17.39l2.17.38q26.07,5.19,43.55,12.31a67.66,67.66,0,0,1,29.24,23q11.74,15.87,11.75,43.36v.38q0,25.58-12.44,43.74t-36,27.69q-23.61,9.51-57,9.52A193.79,193.79,0,0,1,3528.07,1365.47Z"/><path class="cls-1" d="M3671.12,680.56c-61.21,84-100.74,145.15-148.13,199.57-17.5,20.1-53.43,33.94-81.1,34.19-264.95,2.4-530,4.51-794.82-1.93-45.59-1.11-107.42-31.8-131.3-68.45-38.24-58.67,3.53-115.71,53.87-155.53C2729.5,562,2890.79,437.32,3051.41,311.83c21.61-16.88,42.53-34.62,76.29-62.19H1622V567.3H1342.7V16.48c34.44-2,65.27-5.44,96.1-5.45q1005.62-.13,2011.21.46c64.71,0,133.66-2.43,161.22,72.42,26.18,71.1-13.35,120.74-67.16,163-177.78,139.53-355,279.75-550.16,433.67Z"/><path class="cls-1" d="M4,918.69C160.14,693.6,306.36,482.86,452.6,272.13,487,222.52,521,172.6,556.05,123.44,671.37-38.24,820.63-42,937.56,117.4c118.41,161.41,235.8,323.77,346.88,490.18,43.94,65.84,91.48,91.29,171.28,88,159.23-6.66,319,0,478.48-2,220.71-2.8,307-106.76,266.72-330.79,80.73,0,160.12-4.82,238.17,3.2,21,2.15,52.38,42.25,54.29,66.83,12.92,165.92-51.66,305.77-194.26,386.68-96,54.46-212.53,93-322.27,99.64-241.57,14.69-484.72,7.1-727.1,2.17-36.54-.75-84.35-27.28-106.57-57-131-174.94-255.93-354.34-390-542.14L500.37,693.61c101.83,0,186.16,5,269.59-1.41,84.82-6.56,146.65,15,187.52,93.93,22.52,43.45,56.58,81,93.61,132.56Z"/></g></g></svg>