<svg xmlns="http://www.w3.org/2000/svg" viewBox="0 0 413.34 413.13"><defs><style>.cls-1{fill:none;}.cls-2{fill:#0635c9;}.cls-3{fill:#d2a98e;}</style></defs><g id="Layer_2" data-name="Layer 2"><g id="Layer_1-2" data-name="Layer 1"><path class="cls-1" d="M213.4,205.37c0-.36,0-.73,0-1.09.74-9.38-3.47-12.73-13.5-10.22,0,5.38-.6,10.89.11,16.22,1.87,13.9-2.26,24.89-13.64,33.42-3,2.26-6.61,6.14-6.74,9.41-.69,16.3-.32,32.65-.32,49.93h73c24.08,0,29.79-5.73,29.82-29.79,0-37.38-1.7-39-39-39.15C208.31,234,213.86,237.53,213.4,205.37Z"/><path class="cls-1" d="M131.08,165.89c0,6.87.53,13.11-.13,19.21-.86,7.83-6.34,10-12.29,4.89a122.61,122.61,0,0,1-16.31-16.31c-6.89-8.68-15.11-10.29-25.59-7.29v163.1H336.12V166.16c-11.2-2.92-19.28,0-26,8.31a107.73,107.73,0,0,1-14.8,14.71c-2.17,1.82-6.31,3.42-8.49,2.52s-4.19-4.89-4.51-7.72c-.67-6-.2-12-.2-18.09Zm165.08,92.66c.12,8.06.38,16.15-.13,24.17-1.32,20.43-15.36,33.75-35.88,33.83-43.59.18-87.19-.11-130.78.2-9.09.07-12.52-3.33-12.35-12.23.32-17.21.29-34.43,0-51.65-.14-8.27,2.85-12.2,11.55-11.81,9.51.43,19.09-.48,28.56.26,8.89.69,15-2.61,21.1-8.78,5.94-6,8.9-12,8-20.28a78.16,78.16,0,0,1,0-15.37c.69-7.13-4-17.1,9.61-17.86,18.39-1,29.13,4.38,30.67,17.34.9,7.48.17,15.16.17,23.81,11.54,0,21.35-.08,31.16,0C282.13,220.43,295.82,234.16,296.16,258.55Z"/><path class="cls-1" d="M131.72,302.25h32.82V255.78H131.72Z"/><path class="cls-2" d="M378.37.38q-61.59-.76-123.18,0C234.41.6,220.63,15.27,220.3,36.44c-.34,21.63-.06,43.26-.12,64.89,0,2.77-.45,5.53-.69,8.18H193.07c0-24.78.28-48.9-.08-73C192.67,15.28,178.9.62,158.14.37q-61-.75-122.08,0C14.81.63,1,14.55.4,35.73-.19,58.07-.06,80.46.35,102.81c.33,17.71,10.14,29.45,27.19,34.11,2.37.65,4.7,1.44,7.05,2.17v219c-8.35,0-15.62.31-22.85-.08-9.5-.51-12.35,3.81-11,12.76C4.46,395.65,24,412.7,50.47,413c33.36.32,66.73.08,100.09.08q105,0,210.07,0c28.22,0,48.06-16.58,51.91-42.3,1.34-9-1.58-13.22-11-12.73-7.5.38-15,.08-22.53.08V139c23.7-7.11,33.37-16.59,33.89-35.19q.94-34.6,0-69.28C412.31,14.7,398.24.62,378.37.38ZM234.3,130.4c6.78,4.24,15.46,6.08,23.54,7.4,7.42,1.2,15.2.25,23.52.25v13H131.71v-13c8,0,16,1,23.77-.26,8.08-1.28,16.75-3.19,23.51-7.44C192.3,122,220.92,122,234.3,130.4Zm48,53.58c.32,2.83,2.26,6.8,4.51,7.72s6.32-.7,8.49-2.52a107.73,107.73,0,0,0,14.8-14.71c6.7-8.34,14.78-11.23,26-8.31V329.49H76.76V166.39c10.48-3,18.7-1.39,25.59,7.29A122.61,122.61,0,0,0,118.66,190c6,5.12,11.43,2.94,12.29-4.89.66-6.1.13-12.34.13-19.21H282.14C282.14,171.93,281.67,178,282.34,184ZM62.16,170.67Q62,249.83,62.12,329c0,14.22.85,15.11,14.79,15.12q129.74,0,259.47,0c13.9,0,14.79-.95,14.8-15.13q0-80.81,0-161.61c0-14.9-.19-15.06-16.05-16.36,11.29-14.07,11.29-14.07,29.05-12.11V357.07H49.08V139.24c12.25-3.59,21.87-.72,28.17,10.61-4.62,1.87-11,2.52-13.43,6S62.17,165.6,62.16,170.67ZM14.37,103q-.67-33.5,0-67c.29-14.16,7.8-21.54,22.21-21.65q60.44-.48,120.87,0c13.63.11,21.21,7.67,21.49,21.22q.69,33.5,0,67C178.7,116,171,123.33,157.5,124a231.81,231.81,0,0,1-26.36,0c-10.34-.7-14.92,3-14.17,13.8.65,9.33.14,18.74.14,28.12l-3,1.09C102.36,155,91,142.5,78.62,131.11c-4.08-3.75-10.53-6-16.18-6.71-9-1.11-18.29,0-27.42-.48C22.1,123.23,14.63,116,14.37,103Zm383.12,269.2c-4,15.46-13.53,24.34-27.8,26.28a81.82,81.82,0,0,1-11,.62q-152.18,0-304.35,0c-22.36,0-34-8.17-38.49-26.9ZM399,101.5c-.25,14.8-8.1,24.26-22.5,22.07-28.3-4.29-47.37,8.09-63.62,28.76-4.2,5.34-9.15,10.09-13.75,15.12l-3-1.94c0-9.87-.25-19.74.08-29.6.28-8.35-3-12.17-11.6-11.87-9.51.34-19.06.34-28.57-.06-14-.59-21.57-8.06-21.8-22.2-.36-21.6-.33-43.22,0-64.83.21-14.92,7.58-22.57,22.33-22.68q59.89-.43,119.78,0c14.85.09,22.38,7.62,22.62,22.41Q399.54,69.07,399,101.5Z"/><path class="cls-3" d="M226.73,220.18c0-8.65.73-16.33-.17-23.81C225,183.41,214.28,178,195.89,179c-13.61.76-8.92,10.73-9.61,17.86a78.16,78.16,0,0,0,0,15.37c.86,8.32-2.1,14.31-8,20.28-6.15,6.17-12.21,9.47-21.1,8.78-9.47-.74-19,.17-28.56-.26-8.7-.39-11.69,3.54-11.55,11.81.28,17.22.31,34.44,0,51.65-.17,8.9,3.26,12.3,12.35,12.23,43.59-.31,87.19,0,130.78-.2,20.52-.08,34.56-13.4,35.88-33.83.51-8,.25-16.11.13-24.17-.34-24.39-14-38.12-38.27-38.35C248.08,220.1,238.27,220.18,226.73,220.18Zm-62.19,82.07H131.72V255.78h32.82Zm117.56-29c0,24.06-5.74,29.78-29.82,29.79h-73c0-17.28-.37-33.63.32-49.93.13-3.27,3.73-7.15,6.74-9.41,11.38-8.53,15.51-19.52,13.64-33.42-.71-5.33-.11-10.84-.11-16.22,10-2.51,14.24.84,13.5,10.22,0,.36,0,.73,0,1.09.46,32.16-5.09,28.62,29.69,28.73C280.4,234.22,282.13,235.87,282.1,273.25Z"/><path class="cls-3" d="M289.7,62.39c-5.05-1.59-8.65,1.12-7.42,6.87.62,2.91,2.91,5.46,4.44,8.17l4.58.07c1.62-2.67,4.78-5.54,4.46-8C295.41,66.85,292.34,63.22,289.7,62.39Z"/><path class="cls-3" d="M344.33,62.37c-5.49-1.59-8.29,1.93-7,7.25.68,2.87,3.22,5.3,4.91,7.92l4.57-.16c1.46-2.75,4.44-5.79,4-8.18C350.27,66.53,347,63.15,344.33,62.37Z"/><path class="cls-3" d="M310.66,75.73h12.18V62.68H310.66Z"/><path class="cls-3" d="M89.74,105.79c2.63,2.3,9.85,3.5,11.81,1.72C113.21,97,125,86.24,134.46,73.83c3.66-4.82,3.22-14.76,1.26-21.37-2.43-8.22-10.63-12.67-19.32-11.06-6.8,1.26-13.09,5.29-21.49,8.9l-3-2.5c-10.76-8.93-23-9-31.42-.24s-7.84,21.32,1.84,31.3C71.27,88.05,80.11,97.39,89.74,105.79Zm-7.91-48.4C83,57.47,84,59.27,85,60.28c11.61,11.07,11.64,11.1,23.31-.08,4.06-3.9,8.24-8.55,13.93-3.28,5.85,5.43,1.33,9.75-2.63,13.81C112.28,78.25,105,85.81,96.23,94.82c-9-9.61-17.34-17.8-24.73-26.73-1.9-2.3-.92-7-1.26-10.55C74.11,57.44,78,57.11,81.83,57.39Z"/></g></g></svg>